# xmcd
#
# Track frame offsets:
#	150
#	16770
#	33668
#	49648
#	65498
#	87044
#	102870
#	116655
#	134305
#	149915
#	164666
#	178127
#	195067
#	210598
#	226595
#	242053
#	256132
#	270032
#	287507
#	303236
#	317427
#	332363
#
# Disc length: 4614 seconds
#
# Revision: 0
# Processed by: cddbd v1.5.2PL0 Copyright (c) Steve Scherf et al.
# Submitted via: dBpowerAMP V4.0
#
DISCID=21120416
DTITLE=Various Artist - Nu Country Traxx Volume 196 CAN
DYEAR=2010
DGENRE=Country
TTITLE0=Keith Urban - Put You In A Song
TTITLE1=Carolyn Dawn Johnson - The Whole Thing
TTITLE2=High Valley - On The Combine
TTITLE3=Dierks Bentley - Draw Me A Map
TTITLE4=James Otto  - Soldiers and Jesus
TTITLE5=Doc Walker  - From Here
TTITLE6=Jaron And The Road To Love - That's Beautiful To Me
TTITLE7=Deric Ruttan - That's How I Wanna Go Out
TTITLE8=Jerrod Niemann - What Do You Want
TTITLE9=Jaydee Bixby - Can't Ask For More Than That
TTITLE10=Higgins, The - Burn You Back
TTITLE11=Paul Brandt - The Highway Patrol
TTITLE12=Troy Olsen - Good Hands
TTITLE13=Walker Hayes - Pants
TTITLE14=Jewel - Ten
TTITLE15=Joanna Smith - Gettin' Married
TTITLE16=Crystal Shawanda - Beautiful Day
TTITLE17=Jamey Johnson - Playing The Part
TTITLE18=Locash Cowboys - Keep In Mind
TTITLE19=Blaine Larsen - Leavin'
TTITLE20=Crossin' Dixon - Lovin' In The Country
TTITLE21=Matt Kennon - You Can Still Wear White
EXTD=
EXTT0=
EXTT1=
EXTT2=
EXTT3=
EXTT4=
EXTT5=
EXTT6=
EXTT7=
EXTT8=
EXTT9=
EXTT10=
EXTT11=
EXTT12=
EXTT13=
EXTT14=
EXTT15=
EXTT16=
EXTT17=
EXTT18=
EXTT19=
EXTT20=
EXTT21=
PLAYORDER=
